
<svg width="200" height="50" viewBox="0 0 200 50" fill="none" xmlns="http://www.w3.org/2000/svg">
  <path d="M38.8 12.6C38.8 11.9373 38.5366 11.3019 38.0678 10.8322C37.5989 10.3626 36.9627 10.1 36.3 10.1H13.3C12.6373 10.1 12.0011 10.3626 11.5322 10.8322C11.0634 11.3019 10.8 11.9373 10.8 12.6V37.1C10.8 37.7627 11.0634 38.3981 11.5322 38.8678C12.0011 39.3374 12.6373 39.6 13.3 39.6H36.3C36.9627 39.6 37.5989 39.3374 38.0678 38.8678C38.5366 38.3981 38.8 37.7627 38.8 37.1V12.6Z" stroke="#111827" stroke-width="2" stroke-linecap="round" stroke-linejoin="round"/>
  <path d="M18.05 17.35C18.05 17.0187 17.9183 16.7005 17.6839 16.4661C17.4495 16.2317 17.1313 16.1 16.8 16.1C16.4687 16.1 16.1505 16.2317 15.9161 16.4661C15.6817 16.7005 15.55 17.0187 15.55 17.35V32.35C15.55 32.6813 15.6817 32.9995 15.9161 33.2339C16.1505 33.4683 16.4687 33.6 16.8 33.6C17.1313 33.6 17.4495 33.4683 17.6839 33.2339C17.9183 32.9995 18.05 32.6813 18.05 32.35V17.35Z" fill="#111827"/>
  <path d="M25.05 22.35C25.05 22.0187 24.9183 21.7005 24.6839 21.4661C24.4495 21.2317 24.1313 21.1 23.8 21.1C23.4687 21.1 23.1505 21.2317 22.9161 21.4661C22.6817 21.7005 22.55 22.0187 22.55 22.35V32.35C22.55 32.6813 22.6817 32.9995 22.9161 33.2339C23.1505 33.4683 23.4687 33.6 23.8 33.6C24.1313 33.6 24.4495 33.4683 24.6839 33.2339C24.9183 32.9995 25.05 32.6813 25.05 32.35V22.35Z" fill="#111827"/>
  <path d="M32.05 27.35C32.05 27.0187 31.9183 26.7005 31.6839 26.4661C31.4495 26.2317 31.1313 26.1 30.8 26.1C30.4687 26.1 30.1505 26.2317 29.9161 26.4661C29.6817 26.7005 29.55 27.0187 29.55 27.35V32.35C29.55 32.6813 29.6817 32.9995 29.9161 33.2339C30.1505 33.4683 30.4687 33.6 30.8 33.6C31.1313 33.6 31.4495 33.4683 31.6839 33.2339C31.9183 32.9995 32.05 32.6813 32.05 32.35V27.35Z" fill="#111827"/>
  <path d="M52.768 36.2C51.6987 36.2 50.7227 36.0133 49.84 35.64C48.9573 35.2667 48.216 34.7267 47.616 34.02C47.0267 33.3133 46.5947 32.48 46.32 31.52C46.056 30.56 45.924 29.5067 45.924 28.36V19.56H48.964V28.36C48.964 29.1467 49.0493 29.8533 49.22 30.48C49.3907 31.1067 49.644 31.64 49.98 32.08C50.316 32.5093 50.736 32.84 51.24 33.07C51.744 33.29 52.3387 33.4 53.008 33.4C53.6773 33.4 54.2667 33.29 54.776 33.07C55.2853 32.84 55.7 32.5093 56.02 32.08C56.3507 31.64 56.6 31.1067 56.768 30.48C56.936 29.8533 57.02 29.1467 57.02 28.36V19.56H60.06V28.36C60.06 29.5067 59.928 30.56 59.664 31.52C59.4 32.48 58.9733 33.3133 58.384 34.02C57.7947 34.7267 57.0587 35.2667 56.176 35.64C55.2933 36.0133 54.1067 36.2 52.768 36.2ZM62.6714 13.5H65.7114V36H62.6714V13.5ZM76.4148 36.2C75.1174 36.2 73.9521 35.9813 72.9188 35.544C71.8854 35.1067 71.0134 34.5013 70.3028 33.728C69.5921 32.9547 69.0468 32.0453 68.6668 31C68.2868 29.9547 68.0968 28.8373 68.0968 27.648C68.0968 26.4587 68.2868 25.3413 68.6668 24.296C69.0468 23.2507 69.5921 22.3413 70.3028 21.568C71.0134 20.7947 71.8854 20.1893 72.9188 19.752C73.9521 19.3147 75.1174 19.096 76.4148 19.096C77.7228 19.096 78.8934 19.3147 79.9268 19.752C80.9708 20.1893 81.8481 20.7947 82.5588 21.568C83.2694 22.3413 83.8148 23.2507 84.1948 24.296C84.5748 25.3413 84.7648 26.4587 84.7648 27.648C84.7648 28.8373 84.5748 29.9547 84.1948 31C83.8148 32.0453 83.2694 32.9547 82.5588 33.728C81.8481 34.5013 80.9708 35.1067 79.9268 35.544C78.8934 35.9813 77.7228 36.2 76.4148 36.2ZM76.4148 33.4C77.1574 33.4 77.8308 33.2667 78.4348 33C79.0388 32.7333 79.5628 32.36 80.0068 31.88C80.4508 31.4 80.7921 30.8347 81.0308 30.184C81.2694 29.5333 81.3888 28.8267 81.3888 28.064C81.3888 27.3013 81.2694 26.5947 81.0308 25.944C80.7921 25.2933 80.4508 24.728 80.0068 24.248C79.5628 23.768 79.0388 23.3947 78.4348 23.128C77.8308 22.8613 77.1574 22.728 76.4148 22.728C75.6721 22.728 74.9988 22.8613 74.3948 23.128C73.7908 23.3947 73.2668 23.768 72.8228 24.248C72.3788 24.728 72.0374 25.2933 71.7988 25.944C71.5601 26.5947 71.4408 27.3013 71.4408 28.064C71.4408 28.8267 71.5601 29.5333 71.7988 30.184C72.0374 30.8347 72.3788 31.4 72.8228 31.88C73.2668 32.36 73.7908 32.7333 74.3948 33C74.9988 33.2667 75.6721 33.4 76.4148 33.4ZM87.4795 19.56H92.9915C94.0782 19.56 95.0135 19.6667 95.7975 19.88C96.5815 20.0933 97.2335 20.4147 97.7535 20.844C98.2842 21.2733 98.6802 21.8093 98.9415 22.452C99.2028 23.084 99.3335 23.824 99.3335 24.672C99.3335 25.9387 98.9862 26.988 98.2915 27.82C97.5968 28.652 96.5395 29.1667 95.1195 29.364L100.014 36H96.2995L91.8195 29.616H90.5195V36H87.4795V19.56ZM90.5195 27.204H92.7835C93.2488 27.204 93.6608 27.1573 94.0195 27.064C94.3782 26.9707 94.6768 26.8293 94.9155 26.64C95.1542 26.4507 95.3355 26.2107 95.4595 25.92C95.5835 25.6187 95.6455 25.2707 95.6455 24.876C95.6455 24.4813 95.5835 24.1387 95.4595 23.848C95.3355 23.5573 95.1542 23.3227 94.9155 23.144C94.6768 22.9547 94.3782 22.8187 94.0195 22.736C93.6608 22.6427 93.2488 22.596 92.7835 22.596H90.5195V27.204ZM111.655 36.2C110.138 36.2 108.779 35.9707 107.575 35.512C106.382 35.0533 105.39 34.4227 104.599 33.62L106.567 31.32C107.23 31.9627 107.978 32.4667 108.811 32.834C109.655 33.2013 110.615 33.385 111.691 33.385C112.458 33.385 113.04 33.245 113.435 32.965C113.842 32.685 114.045 32.3053 114.045 31.826C114.045 31.5647 113.985 31.3413 113.865 31.156C113.746 30.9707 113.567 30.8067 113.329 30.664C113.102 30.5213 112.805 30.398 112.439 30.294C112.074 30.19 111.643 30.0807 111.145 29.966C110.341 29.7987 109.617 29.616 108.975 29.418C108.334 29.22 107.782 28.9693 107.321 28.666C106.87 28.3627 106.52 27.988 106.273 27.542C106.026 27.096 105.903 26.5493 105.903 25.902C105.903 25.2653 106.041 24.6933 106.316 24.184C106.591 23.6747 106.972 23.2453 107.459 22.896C107.945 22.5467 108.516 22.2773 109.171 22.088C109.836 21.888 110.562 21.788 111.349 21.788C112.659 21.788 113.814 22.0067 114.815 22.444C115.827 22.8813 116.705 23.46 117.451 24.178L115.793 26.432C115.166 25.856 114.506 25.4067 113.815 25.096C113.134 24.7853 112.33 24.63 111.403 24.63C110.722 24.63 110.194 24.7587 109.818 25.016C109.442 25.2733 109.254 25.6133 109.254 26.036C109.254 26.3293 109.319 26.5747 109.449 26.77C109.579 26.9653 109.764 27.1347 110.003 27.278C110.254 27.4213 110.557 27.5447 110.911 27.648C111.276 27.7513 111.697 27.8587 112.175 27.972C112.978 28.1393 113.695 28.3227 114.327 28.52C114.958 28.7173 115.499 28.9627 115.951 29.256C116.402 29.5493 116.748 29.918 116.987 30.362C117.237 30.8053 117.361 31.3573 117.361 32.016C117.361 32.6853 117.218 33.2847 116.933 33.81C116.646 34.3353 116.253 34.7793 115.753 35.142C115.263 35.5047 114.665 35.7807 113.959 35.97C113.263 36.1233 112.498 36.2 111.655 36.2ZM119.756 19.56H122.796V33.29H131.4V36H119.756V19.56ZM148.479 36L146.025 31.2H139.055L136.601 36H133.229L140.667 19.56H144.413L151.851 36H148.479ZM140.179 28.64H144.901L142.54 23.17L140.179 28.64ZM153.767 19.56H156.807V31.23L164.847 19.56H168.179L162.239 28.16L168.767 36H165.155L159.847 29.7L156.807 33.68V36H153.767V19.56ZM177.274 36.2C175.978 36.2 174.812 35.9813 173.778 35.544C172.745 35.1067 171.872 34.5013 171.162 33.728C170.452 32.9547 169.906 32.0453 169.526 31C169.146 29.9547 168.956 28.8373 168.956 27.648C168.956 26.4587 169.146 25.3413 169.526 24.296C169.906 23.2507 170.452 22.3413 171.162 21.568C171.872 20.7947 172.745 20.1893 173.778 19.752C174.812 19.3147 175.978 19.096 177.274 19.096C178.582 19.096 179.753 19.3147 180.786 19.752C181.83 20.1893 182.708 20.7947 183.418 21.568C184.128 22.3413 184.674 23.2507 185.054 24.296C185.434 25.3413 185.624 26.4587 185.624 27.648C185.624 28.8373 185.434 29.9547 185.054 31C184.674 32.0453 184.128 32.9547 183.418 33.728C182.708 34.5013 181.83 35.1067 180.786 35.544C179.753 35.9813 178.582 36.2 177.274 36.2ZM177.274 33.4C178.017 33.4 178.69 33.2667 179.294 33C179.898 32.7333 180.422 32.36 180.866 31.88C181.31 31.4 181.652 30.8347 181.89 30.184C182.129 29.5333 182.248 28.8267 182.248 28.064C182.248 27.3013 182.129 26.5947 181.89 25.944C181.652 25.2933 181.31 24.728 180.866 24.248C180.422 23.768 179.898 23.3947 179.294 23.128C178.69 22.8613 178.017 22.728 177.274 22.728C176.532 22.728 175.858 22.8613 175.254 23.128C174.65 23.3947 174.126 23.768 173.682 24.248C173.238 24.728 172.897 25.2933 172.658 25.944C172.42 26.5947 172.3 27.3013 172.3 28.064C172.3 28.8267 172.42 29.5333 172.658 30.184C172.897 30.8347 173.238 31.4 173.682 31.88C174.126 32.36 174.65 32.7333 175.254 33C175.858 33.2667 176.532 33.4 177.274 33.4ZM197.339 36.2C195.821 36.2 194.463 35.9707 193.259 35.512C192.066 35.0533 191.074 34.4227 190.283 33.62L192.251 31.32C192.913 31.9627 193.662 32.4667 194.495 32.834C195.339 33.2013 196.299 33.385 197.375 33.385C198.142 33.385 198.723 33.245 199.119 32.965C199.525 32.685 199.729 32.3053 199.729 31.826C199.729 31.5647 199.669 31.3413 199.549 31.156C199.429 30.9707 199.25 30.8067 199.013 30.664C198.786 30.5213 198.489 30.398 198.123 30.294C197.757 30.19 197.327 30.0807 196.829 29.966C196.025 29.7987 195.301 29.616 194.659 29.418C194.017 29.22 193.466 28.9693 193.005 28.666C192.554 28.3627 192.203 27.988 191.957 27.542C191.71 27.096 191.587 26.5493 191.587 25.902C191.587 25.2653 191.725 24.6933 192 24.184C192.275 23.6747 192.655 23.2453 193.143 22.896C193.629 22.5467 194.199 22.2773 194.855 22.088C195.519 21.888 196.246 21.788 197.033 21.788C198.342 21.788 199.498 22.0067 200.499 22.444C201.51 22.8813 202.389 23.46 203.135 24.178L201.477 26.432C200.85 25.856 200.19 25.4067 199.499 25.096C198.818 24.7853 198.014 24.63 197.087 24.63C196.406 24.63 195.878 24.7587 195.501 25.016C195.125 25.2733 194.937 25.6133 194.937 26.036C194.937 26.3293 195.002 26.5747 195.133 26.77C195.263 26.9653 195.447 27.1347 195.687 27.278C195.938 27.4213 196.241 27.5447 196.595 27.648C196.959 27.7513 197.381 27.8587 197.859 27.972C198.662 28.1393 199.379 28.3227 200.01 28.52C200.642 28.7173 201.183 28.9627 201.635 29.256C202.086 29.5493 202.431 29.918 202.67 30.362C202.921 30.8053 203.045 31.3573 203.045 32.016C203.045 32.6853 202.902 33.2847 202.617 33.81C202.329 34.3353 201.937 34.7793 201.437 35.142C200.947 35.5047 200.349 35.7807 199.643 35.97C198.947 36.1233 198.182 36.2 197.339 36.2Z" fill="#111827"/>
</svg>
